<svg version="1.1" id="Layer_1" xmlns="http://www.w3.org/2000/svg" xmlns:xlink="http://www.w3.org/1999/xlink" x="0px" y="0px"
	 width="100%" viewBox="0 0 180 180" enable-background="new 0 0 180 180" xml:space="preserve">
<path fill="#FDFDFE" opacity="1.000000" stroke="none" 
	d="
M1.000000,82.000000 
	C1.000000,54.666672 1.000000,27.833345 1.000000,1.000014 
	C60.999981,1.000010 120.999962,1.000010 180.999954,1.000005 
	C180.999969,60.999966 180.999969,120.999931 180.999985,180.999908 
	C121.000046,180.999939 61.000099,180.999939 1.000074,180.999969 
	C1.000000,148.166672 1.000000,115.333336 1.000000,82.000000 
M78.505997,10.726422 
	C77.304810,9.694595 76.103630,8.662768 74.902443,7.630941 
	C74.566566,7.880373 74.230690,8.129805 73.894806,8.379236 
	C74.382866,11.910864 74.870918,15.442492 75.358971,18.974121 
	C75.914650,19.080933 76.470329,19.187746 77.026001,19.294558 
	C77.357704,17.882654 77.689400,16.470751 78.749008,15.071172 
	C80.405571,16.168722 82.062134,17.266273 83.718704,18.363825 
	C84.027451,18.042561 84.336205,17.721296 84.644958,17.400034 
	C84.017281,13.945588 83.389595,10.491142 82.761909,7.036697 
	C82.262749,6.994941 81.763588,6.953185 81.264427,6.911429 
	C81.034386,8.117844 80.804352,9.324259 80.072716,10.932901 
	C79.909492,11.071787 79.746269,11.210673 79.258102,11.351902 
	C79.258102,11.351902 78.933319,11.341649 78.505997,10.726422 
M65.733917,13.572365 
	C64.128700,13.329549 62.106247,8.835913 61.255337,12.982942 
	C60.700775,15.685674 63.467781,19.074575 64.812935,22.126953 
	C64.838058,22.183964 65.685974,21.878384 66.277679,21.704445 
	C66.001129,20.486839 65.738579,19.330885 65.344078,17.593987 
	C67.765556,18.773062 69.645157,19.688284 72.920601,21.283178 
	C71.602020,16.510927 70.679688,13.172791 69.757355,9.834658 
	C69.294991,9.726177 68.832626,9.617698 68.370262,9.509217 
	C67.988121,10.602414 67.605980,11.695610 66.764252,13.303830 
	C66.629410,13.490265 66.494568,13.676699 65.733917,13.572365 
M120.857773,166.928635 
	C122.441620,167.445129 124.025459,167.961609 125.609306,168.478088 
	C125.801590,168.060699 125.993866,167.643326 126.186142,167.225937 
	C124.694778,164.071732 123.203423,160.917526 121.712059,157.763336 
	C121.220497,157.878067 120.728935,157.992813 120.237373,158.107544 
	C120.340485,159.931458 120.443588,161.755371 120.529366,163.272644 
	C118.462029,162.306320 116.309074,161.299957 114.156113,160.293610 
	C114.402184,163.896027 115.285110,166.369720 116.487465,168.676956 
	C116.978722,169.619659 118.161568,170.201935 119.029785,170.948196 
	C119.106964,169.792145 119.184143,168.636078 119.745804,167.167496 
	C119.894356,167.045578 120.042915,166.923660 120.857773,166.928635 
M142.821625,28.876913 
	C142.655273,28.760532 142.488922,28.644150 142.300232,27.788260 
	C142.300232,26.050131 142.300232,24.312002 142.300232,22.573874 
	C141.817322,22.463722 141.334396,22.353573 140.851486,22.243423 
	C138.639801,25.031187 136.428116,27.818951 134.216446,30.606714 
	C134.477219,31.078247 134.737976,31.549780 134.998749,32.021313 
	C136.619934,31.188608 138.241104,30.355902 139.695450,29.608892 
	C139.900192,31.807327 140.109619,34.056179 140.397858,37.151237 
	C147.161194,30.486464 147.955383,28.977261 145.992950,25.474825 
	C144.975037,26.901709 144.127121,28.090296 142.821625,28.876913 
M62.040081,57.083492 
	C72.153900,57.083492 82.267723,57.083492 93.032806,57.083492 
	C93.032806,72.354614 93.032806,87.063850 93.032806,100.855568 
	C104.378090,102.223854 114.936317,103.497215 126.001266,104.831696 
	C126.001266,95.041466 126.067291,85.583672 125.981842,76.127243 
	C125.903572,67.465508 122.937744,59.884369 116.974838,53.549545 
	C110.352745,46.514423 102.134766,43.079170 92.524185,43.028301 
	C80.742401,42.965935 68.960037,43.013432 56.878635,43.013432 
	C56.878635,48.078209 56.878635,52.533939 56.533611,57.719501 
	C56.493717,69.518944 56.444298,81.318359 56.417309,93.117828 
	C56.399532,100.890327 56.426537,100.810997 64.197609,102.038979 
	C66.627937,102.423019 68.947723,103.459557 71.358856,104.023071 
	C75.028038,104.880615 78.732727,105.586220 83.029602,106.483101 
	C83.029602,92.667435 82.888550,79.405342 83.125298,66.149994 
	C83.187202,62.683987 81.768158,61.601601 78.797234,61.007370 
	C72.880104,59.823856 67.008293,58.413754 62.040081,57.083492 
M94.751785,131.899658 
	C93.732216,129.694305 92.712639,127.488945 91.517426,124.903671 
	C79.645981,131.381073 68.382301,123.326828 56.772865,123.971214 
	C56.772865,128.260330 56.772865,131.996902 56.772865,135.540192 
	C63.541069,137.043777 69.944420,139.348251 76.444397,139.664062 
	C83.040947,139.984573 89.732872,138.341980 96.938515,137.493744 
	C96.025642,135.046844 95.569183,133.823334 94.751785,131.899658 
M87.131943,122.021843 
	C87.710831,120.871994 89.074799,119.085037 88.742035,118.675011 
	C86.468414,115.873337 87.940369,110.383896 82.283089,109.957787 
	C77.726402,109.614571 73.206680,108.753258 68.678207,108.071045 
	C64.824921,107.490562 60.982552,106.837669 56.758297,106.155952 
	C56.758297,110.828033 56.758297,114.733582 56.758297,119.467682 
	C66.646889,120.340912 76.425140,121.204399 87.131943,122.021843 
M16.809059,128.546829 
	C3.499281,95.627777 8.093036,65.699020 31.734030,38.924309 
	C32.347603,38.229408 32.596573,37.212570 33.303139,35.751057 
	C17.493464,42.294144 5.398137,77.847290 7.961773,108.144936 
	C9.245954,123.321671 24.631401,151.450989 32.664062,153.363174 
	C27.502375,145.331665 22.327288,137.279297 16.809059,128.546829 
M157.825806,146.305542 
	C187.722794,107.719925 175.771301,57.066757 149.883423,36.105808 
	C150.443878,37.777359 151.286758,39.307434 152.392273,40.615551 
	C171.870331,63.663338 177.550735,89.660378 169.281784,118.718361 
	C165.948517,130.431870 159.764084,140.474747 151.818253,149.561768 
	C150.880417,150.634277 150.316711,152.033951 149.579575,153.281952 
	C150.023544,153.573853 150.467514,153.865738 150.911484,154.157623 
	C153.064560,151.727661 155.217621,149.297684 157.825806,146.305542 
M100.978111,111.564751 
	C106.972771,120.554825 115.728508,122.677856 125.665161,122.136688 
	C125.665161,117.794754 125.665161,114.055283 125.665161,110.214554 
	C116.142914,108.684837 106.951546,107.208282 97.760185,105.731728 
	C97.630890,106.262764 97.501602,106.793793 97.372314,107.324829 
	C98.419960,108.563599 99.467613,109.802361 100.978111,111.564751 
M130.351288,27.669073 
	C135.166779,26.007486 137.295578,22.899046 135.057709,19.897816 
	C133.699341,18.076115 130.668015,16.120640 128.790573,16.458822 
	C126.942871,16.791647 124.674782,19.760914 124.252045,21.901373 
	C123.571152,25.348995 126.177635,27.231270 130.351288,27.669073 
M66.023705,160.511246 
	C64.358421,159.595184 62.693142,158.679138 60.705627,157.585815 
	C59.031738,161.245041 57.573345,164.433167 55.605026,168.736023 
	C59.035175,168.736023 62.423904,169.725693 64.123550,168.455383 
	C65.795639,167.205688 65.754265,163.663391 66.023705,160.511246 
M50.776966,25.860426 
	C53.174782,25.660128 55.951210,26.115746 57.836483,25.027512 
	C59.080551,24.309399 59.912846,21.054489 59.350437,19.510656 
	C58.706612,17.743338 56.408134,15.646066 54.655434,15.475940 
	C52.877914,15.303406 49.833729,16.915222 49.259861,18.458046 
	C48.541946,20.388144 49.778282,23.045143 50.776966,25.860426 
M125.830147,127.981392 
	C121.747360,127.121048 117.664581,126.260712 112.955956,125.268486 
	C117.329010,130.203430 121.339760,134.729523 126.011986,140.002090 
	C126.011986,135.461899 126.011986,132.162781 125.830147,127.981392 
M103.137978,18.906876 
	C104.548798,18.002350 105.959610,17.097824 107.668777,16.002014 
	C104.867004,13.207936 98.626060,19.036451 99.515472,12.769465 
	C100.445503,6.216306 104.703461,13.567910 108.370621,11.995463 
	C106.720444,10.351682 105.680664,8.674037 104.180984,7.953223 
	C100.872269,6.362905 97.123116,8.142569 96.433990,11.671719 
	C95.546814,16.215160 98.230789,18.324131 103.137978,18.906876 
M94.838913,171.697128 
	C95.861984,173.115295 96.885056,174.533463 97.908134,175.951630 
	C99.059067,172.990204 99.150223,169.979202 98.990532,166.981552 
	C98.953789,166.291763 98.056183,165.647842 97.554741,164.982819 
	C97.041504,165.615189 96.519455,166.240662 96.017464,166.881836 
	C95.498199,167.545059 94.998413,168.223541 94.490112,168.895340 
	C93.975266,168.247467 93.475533,167.586807 92.941650,166.955017 
	C92.301361,166.197296 91.631935,165.464188 90.482407,164.162506 
	C89.410439,172.614197 89.757225,174.353241 92.563103,175.987015 
	C93.063095,174.569336 93.556015,173.171738 94.838913,171.697128 
M36.566566,29.244070 
	C37.337196,33.515347 40.321640,34.732422 43.917313,33.644714 
	C47.214455,32.647316 48.729733,30.008884 47.310760,25.285868 
	C46.147511,27.183722 45.645733,28.514147 44.711437,29.375355 
	C43.864147,30.156366 42.481285,30.904594 41.455719,30.766615 
	C40.667103,30.660515 39.435719,29.068966 39.541790,28.294111 
	C39.675430,27.317863 40.833672,26.284094 41.801498,25.674971 
	C42.786339,25.055140 44.076885,24.921032 46.311829,24.250946 
	C39.930836,21.641378 37.656536,22.942633 36.566566,29.244070 
M87.179764,10.822081 
	C87.179764,13.092727 87.179764,15.363373 87.179764,18.047796 
	C89.833443,17.897758 91.820740,17.785398 93.808044,17.673038 
	C93.919975,17.252153 94.031906,16.831268 94.143837,16.410383 
	C93.162193,15.726695 92.180557,15.043007 91.241173,14.388747 
	C92.086899,13.640982 92.951607,12.876431 94.265686,11.714561 
	C92.525124,11.167669 91.465538,10.834744 90.290207,10.465452 
	C91.674934,9.701939 92.800850,9.081132 93.926765,8.460324 
	C93.746811,8.053826 93.566856,7.647328 93.386902,7.240830 
	C91.051201,7.338432 87.616821,4.117846 87.179764,10.822081 
M72.594376,163.729721 
	C70.665649,166.342041 68.736916,168.954346 66.750092,171.645355 
	C70.316315,172.570129 73.513817,173.399292 77.070389,174.321564 
	C76.729019,171.297058 76.511772,168.002884 75.873055,164.792542 
	C75.734337,164.095352 74.084366,163.698822 72.594376,163.729721 
M103.920341,171.504364 
	C104.041382,172.647385 104.162422,173.790405 104.218552,174.320435 
	C107.652916,173.579788 110.557465,172.953400 113.657516,172.284836 
	C113.124939,171.356628 112.561188,170.008499 111.679466,168.917282 
	C110.092476,166.953217 108.314873,165.143188 106.616905,163.268799 
	C105.722687,165.724899 104.828468,168.181000 103.920341,171.504364 
M114.641212,16.067467 
	C115.683540,14.569199 116.725868,13.070931 118.128197,11.055202 
	C115.736961,10.436322 113.438362,9.841415 111.703377,9.392381 
	C111.382721,12.700743 111.090088,15.215778 110.919250,17.739059 
	C110.853981,18.703119 111.067535,19.686052 111.154022,20.660387 
	C112.015640,19.995586 112.975395,19.420732 113.699898,18.630262 
	C114.096954,18.197042 114.096893,17.399858 114.641212,16.067467 
M81.025261,172.338928 
	C80.421814,175.974823 83.054832,175.850449 85.356300,175.968338 
	C85.866142,175.994461 86.816124,175.499207 86.844528,175.180054 
	C86.904465,174.506439 86.556725,173.214584 86.258484,173.179581 
	C82.601608,172.750290 84.854347,170.270966 84.583054,168.676407 
	C84.341682,167.257767 83.969368,165.861374 83.654854,164.455170 
	C83.058800,164.551468 82.462746,164.647781 81.866692,164.744095 
	C81.599205,166.987991 81.331711,169.231903 81.025261,172.338928 
z"/>
<path fill="#FFC141" opacity="1.000000" stroke="none" 
	d="
M56.878635,56.989670 
	C56.878635,52.533939 56.878635,48.078209 56.878635,43.013432 
	C68.960037,43.013432 80.742401,42.965935 92.524185,43.028301 
	C102.134766,43.079170 110.352745,46.514423 116.974838,53.549545 
	C122.937744,59.884369 125.903572,67.465508 125.981842,76.127243 
	C126.067291,85.583672 126.001266,95.041466 126.001266,104.831696 
	C114.936317,103.497215 104.378090,102.223854 93.032806,100.855568 
	C93.032806,87.063850 93.032806,72.354614 93.032806,57.083492 
	C82.267723,57.083492 72.153900,57.083492 61.156845,57.065887 
	C59.141953,57.028744 58.010292,57.009205 56.878635,56.989670 
z"/>
<path fill="#FD6A38" opacity="1.000000" stroke="none" 
	d="
M56.706123,57.354584 
	C58.010292,57.009205 59.141953,57.028744 60.695683,57.072769 
	C67.008293,58.413754 72.880104,59.823856 78.797234,61.007370 
	C81.768158,61.601601 83.187202,62.683987 83.125298,66.149994 
	C82.888550,79.405342 83.029602,92.667435 83.029602,106.483101 
	C78.732727,105.586220 75.028038,104.880615 71.358856,104.023071 
	C68.947723,103.459557 66.627937,102.423019 64.197609,102.038979 
	C56.426537,100.810997 56.399532,100.890327 56.417309,93.117828 
	C56.444298,81.318359 56.493717,69.518944 56.706123,57.354584 
z"/>
<path fill="#17366B" opacity="1.000000" stroke="none" 
	d="
M94.932251,132.249756 
	C95.569183,133.823334 96.025642,135.046844 96.938515,137.493744 
	C89.732872,138.341980 83.040947,139.984573 76.444397,139.664062 
	C69.944420,139.348251 63.541069,137.043777 56.772865,135.540192 
	C56.772865,131.996902 56.772865,128.260330 56.772865,123.971214 
	C68.382301,123.326828 79.645981,131.381073 91.517426,124.903671 
	C92.712639,127.488945 93.732216,129.694305 94.932251,132.249756 
z"/>
<path fill="#153469" opacity="1.000000" stroke="none" 
	d="
M86.667664,122.044861 
	C76.425140,121.204399 66.646889,120.340912 56.758297,119.467682 
	C56.758297,114.733582 56.758297,110.828033 56.758297,106.155952 
	C60.982552,106.837669 64.824921,107.490562 68.678207,108.071045 
	C73.206680,108.753258 77.726402,109.614571 82.283089,109.957787 
	C87.940369,110.383896 86.468414,115.873337 88.742035,118.675011 
	C89.074799,119.085037 87.710831,120.871994 86.667664,122.044861 
z"/>
<path fill="#2A4777" opacity="1.000000" stroke="none" 
	d="
M16.980629,128.886887 
	C22.327288,137.279297 27.502375,145.331665 32.664062,153.363174 
	C24.631401,151.450989 9.245954,123.321671 7.961773,108.144936 
	C5.398137,77.847290 17.493464,42.294144 33.303139,35.751057 
	C32.596573,37.212570 32.347603,38.229408 31.734030,38.924309 
	C8.093036,65.699020 3.499281,95.627777 16.980629,128.886887 
z"/>
<path fill="#264374" opacity="1.000000" stroke="none" 
	d="
M157.598251,146.586624 
	C155.217621,149.297684 153.064560,151.727661 150.911484,154.157623 
	C150.467514,153.865738 150.023544,153.573853 149.579575,153.281952 
	C150.316711,152.033951 150.880417,150.634277 151.818253,149.561768 
	C159.764084,140.474747 165.948517,130.431870 169.281784,118.718361 
	C177.550735,89.660378 171.870331,63.663338 152.392273,40.615551 
	C151.286758,39.307434 150.443878,37.777359 149.883423,36.105808 
	C175.771301,57.066757 187.722794,107.719925 157.598251,146.586624 
z"/>
<path fill="#17366B" opacity="1.000000" stroke="none" 
	d="
M100.746689,111.302933 
	C99.467613,109.802361 98.419960,108.563599 97.372314,107.324829 
	C97.501602,106.793793 97.630890,106.262764 97.760185,105.731728 
	C106.951546,107.208282 116.142914,108.684837 125.665161,110.214554 
	C125.665161,114.055283 125.665161,117.794754 125.665161,122.136688 
	C115.728508,122.677856 106.972771,120.554825 100.746689,111.302933 
z"/>
<path fill="#284576" opacity="1.000000" stroke="none" 
	d="
M143.279205,29.278881 
	C144.127121,28.090296 144.975037,26.901709 145.992950,25.474825 
	C147.955383,28.977261 147.161194,30.486464 140.397858,37.151237 
	C140.109619,34.056179 139.900192,31.807327 139.695450,29.608892 
	C138.241104,30.355902 136.619934,31.188608 134.998749,32.021313 
	C134.737976,31.549780 134.477219,31.078247 134.216446,30.606714 
	C136.428116,27.818951 138.639801,25.031187 140.851486,22.243423 
	C141.334396,22.353573 141.817322,22.463722 142.300232,22.573874 
	C142.300232,24.312002 142.300232,26.050131 142.232666,28.420176 
	C142.244705,29.323929 142.324341,29.595766 142.403961,29.867603 
	C142.695709,29.671362 142.987457,29.475121 143.279205,29.278881 
z"/>
<path fill="#274475" opacity="1.000000" stroke="none" 
	d="
M129.971832,27.673874 
	C126.177635,27.231270 123.571152,25.348995 124.252045,21.901373 
	C124.674782,19.760914 126.942871,16.791647 128.790573,16.458822 
	C130.668015,16.120640 133.699341,18.076115 135.057709,19.897816 
	C137.295578,22.899046 135.166779,26.007486 129.971832,27.673874 
M127.579384,23.799974 
	C129.852676,26.083675 131.563965,24.938856 132.337311,22.580891 
	C132.620087,21.718670 131.233124,20.308836 130.607910,19.148821 
	C129.463837,20.485327 128.319763,21.821833 127.579384,23.799974 
z"/>
<path fill="#264374" opacity="1.000000" stroke="none" 
	d="
M119.261322,167.480026 
	C119.184143,168.636078 119.106964,169.792145 119.029785,170.948196 
	C118.161568,170.201935 116.978722,169.619659 116.487465,168.676956 
	C115.285110,166.369720 114.402184,163.896027 114.156113,160.293610 
	C116.309074,161.299957 118.462029,162.306320 120.529366,163.272644 
	C120.443588,161.755371 120.340485,159.931458 120.237373,158.107544 
	C120.728935,157.992813 121.220497,157.878067 121.712059,157.763336 
	C123.203423,160.917526 124.694778,164.071732 126.186142,167.225937 
	C125.993866,167.643326 125.801590,168.060699 125.609306,168.478088 
	C124.025459,167.961609 122.441620,167.445129 120.375313,166.576965 
	C119.512436,166.247269 119.132027,166.269241 118.751617,166.291199 
	C118.921516,166.687485 119.091415,167.083755 119.261322,167.480026 
z"/>
<path fill="#203E71" opacity="1.000000" stroke="none" 
	d="
M66.244232,160.819153 
	C65.754265,163.663391 65.795639,167.205688 64.123550,168.455383 
	C62.423904,169.725693 59.035175,168.736023 55.605026,168.736023 
	C57.573345,164.433167 59.031738,161.245041 60.705627,157.585815 
	C62.693142,158.679138 64.358421,159.595184 66.244232,160.819153 
z"/>
<path fill="#294676" opacity="1.000000" stroke="none" 
	d="
M50.473991,25.624392 
	C49.778282,23.045143 48.541946,20.388144 49.259861,18.458046 
	C49.833729,16.915222 52.877914,15.303406 54.655434,15.475940 
	C56.408134,15.646066 58.706612,17.743338 59.350437,19.510656 
	C59.912846,21.054489 59.080551,24.309399 57.836483,25.027512 
	C55.951210,26.115746 53.174782,25.660128 50.473991,25.624392 
M54.468819,23.959415 
	C56.997253,23.017826 57.908699,21.287432 55.897350,19.295799 
	C55.170650,18.576223 53.221031,19.091667 51.829460,19.043541 
	C52.454285,20.671083 53.079105,22.298626 54.468819,23.959415 
z"/>
<path fill="#213F71" opacity="1.000000" stroke="none" 
	d="
M67.223839,12.788808 
	C67.605980,11.695610 67.988121,10.602414 68.370262,9.509217 
	C68.832626,9.617698 69.294991,9.726177 69.757355,9.834658 
	C70.679688,13.172791 71.602020,16.510927 72.920601,21.283178 
	C69.645157,19.688284 67.765556,18.773062 65.344078,17.593987 
	C65.738579,19.330885 66.001129,20.486839 66.277679,21.704445 
	C65.685974,21.878384 64.838058,22.183964 64.812935,22.126953 
	C63.467781,19.074575 60.700775,15.685674 61.255337,12.982942 
	C62.106247,8.835913 64.128700,13.329549 66.214417,13.944081 
	C67.071716,14.358084 67.448524,14.400370 67.825325,14.442656 
	C67.624825,13.891373 67.424332,13.340091 67.223839,12.788808 
z"/>
<path fill="#1E3C6F" opacity="1.000000" stroke="none" 
	d="
M125.921066,128.422531 
	C126.011986,132.162781 126.011986,135.461899 126.011986,140.002090 
	C121.339760,134.729523 117.329010,130.203430 112.955956,125.268486 
	C117.664581,126.260712 121.747360,127.121048 125.921066,128.422531 
z"/>
<path fill="#2F4B7A" opacity="1.000000" stroke="none" 
	d="
M102.764404,18.959751 
	C98.230789,18.324131 95.546814,16.215160 96.433990,11.671719 
	C97.123116,8.142569 100.872269,6.362905 104.180984,7.953223 
	C105.680664,8.674037 106.720444,10.351682 108.370621,11.995463 
	C104.703461,13.567910 100.445503,6.216306 99.515472,12.769465 
	C98.626060,19.036451 104.867004,13.207936 107.668777,16.002014 
	C105.959610,17.097824 104.548798,18.002350 102.764404,18.959751 
z"/>
<path fill="#254274" opacity="1.000000" stroke="none" 
	d="
M94.443924,171.735626 
	C93.556015,173.171738 93.063095,174.569336 92.563103,175.987015 
	C89.757225,174.353241 89.410439,172.614197 90.482407,164.162506 
	C91.631935,165.464188 92.301361,166.197296 92.941650,166.955017 
	C93.475533,167.586807 93.975266,168.247467 94.490112,168.895340 
	C94.998413,168.223541 95.498199,167.545059 96.017464,166.881836 
	C96.519455,166.240662 97.041504,165.615189 97.554741,164.982819 
	C98.056183,165.647842 98.953789,166.291763 98.990532,166.981552 
	C99.150223,169.979202 99.059067,172.990204 97.908134,175.951630 
	C96.885056,174.533463 95.861984,173.115295 94.443924,171.735626 
z"/>
<path fill="#254274" opacity="1.000000" stroke="none" 
	d="
M36.552071,28.877003 
	C37.656536,22.942633 39.930836,21.641378 46.311829,24.250946 
	C44.076885,24.921032 42.786339,25.055140 41.801498,25.674971 
	C40.833672,26.284094 39.675430,27.317863 39.541790,28.294111 
	C39.435719,29.068966 40.667103,30.660515 41.455719,30.766615 
	C42.481285,30.904594 43.864147,30.156366 44.711437,29.375355 
	C45.645733,28.514147 46.147511,27.183722 47.310760,25.285868 
	C48.729733,30.008884 47.214455,32.647316 43.917313,33.644714 
	C40.321640,34.732422 37.337196,33.515347 36.552071,28.877003 
z"/>
<path fill="#3C5783" opacity="1.000000" stroke="none" 
	d="
M87.181862,10.392216 
	C87.616821,4.117846 91.051201,7.338432 93.386902,7.240830 
	C93.566856,7.647328 93.746811,8.053826 93.926765,8.460324 
	C92.800850,9.081132 91.674934,9.701939 90.290207,10.465452 
	C91.465538,10.834744 92.525124,11.167669 94.265686,11.714561 
	C92.951607,12.876431 92.086899,13.640982 91.241173,14.388747 
	C92.180557,15.043007 93.162193,15.726695 94.143837,16.410383 
	C94.031906,16.831268 93.919975,17.252153 93.808044,17.673038 
	C91.820740,17.785398 89.833443,17.897758 87.179764,18.047796 
	C87.179764,15.363373 87.179764,13.092727 87.181862,10.392216 
z"/>
<path fill="#234072" opacity="1.000000" stroke="none" 
	d="
M72.862419,163.446762 
	C74.084366,163.698822 75.734337,164.095352 75.873055,164.792542 
	C76.511772,168.002884 76.729019,171.297058 77.070389,174.321564 
	C73.513817,173.399292 70.316315,172.570129 66.750092,171.645355 
	C68.736916,168.954346 70.665649,166.342041 72.862419,163.446762 
z"/>
<path fill="#244273" opacity="1.000000" stroke="none" 
	d="
M103.927292,171.070740 
	C104.828468,168.181000 105.722687,165.724899 106.616913,163.268799 
	C108.314873,165.143188 110.092476,166.953217 111.679466,168.917282 
	C112.561188,170.008499 113.124939,171.356628 113.657516,172.284836 
	C110.557465,172.953400 107.652916,173.579788 104.218552,174.320435 
	C104.162422,173.790405 104.041382,172.647385 103.927292,171.070740 
z"/>
<path fill="#1F3D70" opacity="1.000000" stroke="none" 
	d="
M114.458557,16.417133 
	C114.096893,17.399858 114.096954,18.197042 113.699898,18.630262 
	C112.975395,19.420732 112.015640,19.995586 111.154022,20.660385 
	C111.067535,19.686052 110.853981,18.703119 110.919250,17.739059 
	C111.090088,15.215778 111.382721,12.700743 111.703377,9.392381 
	C113.438362,9.841415 115.736961,10.436322 118.128197,11.055202 
	C116.725868,13.070931 115.683540,14.569199 114.458557,16.417133 
z"/>
<path fill="#2B4878" opacity="1.000000" stroke="none" 
	d="
M81.044739,171.907379 
	C81.331711,169.231903 81.599205,166.987991 81.866692,164.744095 
	C82.462746,164.647781 83.058800,164.551468 83.654854,164.455170 
	C83.969368,165.861374 84.341682,167.257767 84.583054,168.676407 
	C84.854347,170.270966 82.601608,172.750290 86.258484,173.179581 
	C86.556725,173.214584 86.904465,174.506439 86.844528,175.180054 
	C86.816124,175.499207 85.866142,175.994461 85.356300,175.968338 
	C83.054832,175.850449 80.421814,175.974823 81.044739,171.907379 
z"/>
<path fill="#234072" opacity="1.000000" stroke="none" 
	d="
M80.574310,10.530674 
	C80.804352,9.324259 81.034386,8.117844 81.264427,6.911429 
	C81.763588,6.953185 82.262749,6.994941 82.761909,7.036697 
	C83.389595,10.491142 84.017281,13.945588 84.644958,17.400034 
	C84.336205,17.721296 84.027451,18.042561 83.718704,18.363825 
	C82.062134,17.266273 80.405571,16.168722 78.402206,14.742275 
	C78.348045,13.389468 78.640678,12.365559 78.933319,11.341649 
	C78.933319,11.341649 79.258102,11.351902 79.519264,11.637869 
	C80.076920,12.168444 80.373421,12.413053 80.669914,12.657661 
	C80.638046,11.948666 80.606178,11.239670 80.574310,10.530674 
z"/>
<path fill="#1F3D70" opacity="1.000000" stroke="none" 
	d="
M78.719658,11.034036 
	C78.640678,12.365559 78.348045,13.389468 78.038254,14.736113 
	C77.689400,16.470751 77.357704,17.882654 77.026001,19.294558 
	C76.470329,19.187746 75.914650,19.080933 75.358971,18.974121 
	C74.870918,15.442492 74.382866,11.910864 73.894806,8.379236 
	C74.230690,8.129805 74.566566,7.880373 74.902443,7.630941 
	C76.103630,8.662768 77.304810,9.694595 78.719658,11.034036 
z"/>
<path fill="#FDFDFE" opacity="1.000000" stroke="none" 
	d="
M143.050415,29.077896 
	C142.987457,29.475121 142.695709,29.671362 142.403961,29.867603 
	C142.324341,29.595766 142.244705,29.323929 142.243835,28.789930 
	C142.488922,28.644150 142.655273,28.760532 143.050415,29.077896 
z"/>
<path fill="#EBEEF2" opacity="1.000000" stroke="none" 
	d="
M127.377533,23.479156 
	C128.319763,21.821833 129.463837,20.485327 130.607910,19.148821 
	C131.233124,20.308836 132.620087,21.718670 132.337311,22.580891 
	C131.563965,24.938856 129.852676,26.083675 127.377533,23.479156 
z"/>
<path fill="#FDFDFE" opacity="1.000000" stroke="none" 
	d="
M119.503563,167.323761 
	C119.091415,167.083755 118.921516,166.687485 118.751617,166.291199 
	C119.132027,166.269241 119.512436,166.247269 120.042160,166.513519 
	C120.042915,166.923660 119.894356,167.045578 119.503563,167.323761 
z"/>
<path fill="#F1F3F6" opacity="1.000000" stroke="none" 
	d="
M54.086372,23.942791 
	C53.079105,22.298626 52.454285,20.671083 51.829460,19.043541 
	C53.221031,19.091667 55.170650,18.576223 55.897350,19.295799 
	C57.908699,21.287432 56.997253,23.017826 54.086372,23.942791 
z"/>
<path fill="#FDFDFE" opacity="1.000000" stroke="none" 
	d="
M66.994049,13.046320 
	C67.424332,13.340091 67.624825,13.891373 67.825325,14.442656 
	C67.448524,14.400370 67.071716,14.358084 66.527321,14.089465 
	C66.494568,13.676699 66.629410,13.490265 66.994049,13.046320 
z"/>
<path fill="#FDFDFE" opacity="1.000000" stroke="none" 
	d="
M80.323517,10.731787 
	C80.606178,11.239670 80.638046,11.948666 80.669914,12.657661 
	C80.373421,12.413053 80.076920,12.168444 79.681732,11.636698 
	C79.746269,11.210673 79.909492,11.071787 80.323517,10.731787 
z"/>
</svg>